<svg xmlns="http://www.w3.org/2000/svg" viewBox="0 0 64 64" role="img" aria-label="Auralis Digital favicon">
  <defs>
    <linearGradient id="bg" x1="0" y1="0" x2="1" y2="1">
      <stop offset="0" stop-color="#0f172a"/>
      <stop offset="1" stop-color="#0e7490"/>
    </linearGradient>
    <linearGradient id="mark" x1="0" y1="1" x2="1" y2="0">
      <stop offset="0" stop-color="#67e8f9"/>
      <stop offset="1" stop-color="#f8fafc"/>
    </linearGradient>
  </defs>
  <rect width="64" height="64" rx="14" fill="url(#bg)"/>
  <path d="M16 47 30.5 15h3L48 47h-8.5l-2.6-6.3H27.1L24.5 47H16Zm14-13.4h4l-2-5.1-2 5.1Z" fill="url(#mark)"/>
  <path d="M37.5 17H47c7.3 0 12 4.7 12 12s-4.7 12-12 12h-7.2l-2.9-7h9.8c3 0 5-2 5-5s-2-5-5-5h-6.3l-2.9-7Z" fill="#f8fafc" opacity="0.94"/>
</svg>
